# 3ds Max Wavefront OBJ Exporter v0.99 - (c)2007 guruware
# File Created: 30.01.2021 11:15:58

#
# object Cylinder001
#

v  39.3701 0.0000 -0.0000
v  39.3701 118.1102 -0.0000
v  37.4432 118.1102 -12.1660
v  37.4432 0.0000 -12.1660
v  31.8511 118.1102 -23.1412
v  31.8511 0.0000 -23.1412
v  23.1412 118.1102 -31.8511
v  23.1412 0.0000 -31.8511
v  12.1660 118.1102 -37.4432
v  12.1660 0.0000 -37.4432
v  -0.0000 118.1102 -39.3701
v  -0.0000 0.0000 -39.3701
v  -12.1660 118.1102 -37.4432
v  -12.1660 0.0000 -37.4432
v  -23.1411 118.1102 -31.8511
v  -23.1411 0.0000 -31.8511
v  -31.8511 118.1102 -23.1411
v  -31.8511 0.0000 -23.1411
v  -37.4432 118.1102 -12.1660
v  -37.4432 0.0000 -12.1660
v  -39.3701 118.1102 0.0000
v  -39.3701 0.0000 0.0000
v  -37.4432 118.1102 12.1660
v  -37.4432 0.0000 12.1660
v  -31.8510 118.1102 23.1412
v  -31.8510 0.0000 23.1412
v  -23.1411 118.1102 31.8511
v  -23.1411 0.0000 31.8511
v  -12.1660 118.1102 37.4432
v  -12.1660 0.0000 37.4432
v  0.0000 118.1102 39.3701
v  0.0000 0.0000 39.3701
v  12.1661 118.1102 37.4432
v  12.1661 0.0000 37.4432
v  23.1412 118.1102 31.8510
v  23.1412 0.0000 31.8510
v  31.8511 118.1102 23.1411
v  31.8511 0.0000 23.1411
v  37.4432 118.1102 12.1660
v  37.4432 0.0000 12.1660
# 40 vertices

vn -1.0000 0.0000 0.0000
vn -0.9511 0.0000 0.3090
vn -0.8090 0.0000 0.5878
vn -0.5878 0.0000 0.8090
vn -0.3090 0.0000 0.9511
vn -0.0000 0.0000 1.0000
vn 0.3090 0.0000 0.9511
vn 0.5878 0.0000 0.8090
vn 0.8090 0.0000 0.5878
vn 0.9511 0.0000 0.3090
vn 1.0000 0.0000 -0.0000
vn 0.9511 0.0000 -0.3090
vn 0.8090 0.0000 -0.5878
vn 0.5878 0.0000 -0.8090
vn 0.3090 0.0000 -0.9511
vn -0.0000 0.0000 -1.0000
vn -0.3090 0.0000 -0.9511
vn -0.5878 0.0000 -0.8090
vn -0.8090 0.0000 -0.5878
vn -0.9511 0.0000 -0.3090
# 20 vertex normals

vt 0.0000 0.0000 0.5000
vt 0.0000 1.0000 0.5000
vt 0.0500 1.0000 0.5000
vt 0.0500 0.0000 0.5000
vt 0.1000 1.0000 0.5000
vt 0.1000 0.0000 0.5000
vt 0.1500 1.0000 0.5000
vt 0.1500 0.0000 0.5000
vt 0.2000 1.0000 0.5000
vt 0.2000 0.0000 0.5000
vt 0.2500 1.0000 0.5000
vt 0.2500 0.0000 0.5000
vt 0.3000 1.0000 0.5000
vt 0.3000 0.0000 0.5000
vt 0.3500 1.0000 0.5000
vt 0.3500 0.0000 0.5000
vt 0.4000 1.0000 0.5000
vt 0.4000 0.0000 0.5000
vt 0.4500 1.0000 0.5000
vt 0.4500 0.0000 0.5000
vt 0.5000 1.0000 0.5000
vt 0.5000 0.0000 0.5000
vt 0.5500 1.0000 0.5000
vt 0.5500 0.0000 0.5000
vt 0.6000 1.0000 0.5000
vt 0.6000 0.0000 0.5000
vt 0.6500 1.0000 0.5000
vt 0.6500 0.0000 0.5000
vt 0.7000 1.0000 0.5000
vt 0.7000 0.0000 0.5000
vt 0.7500 1.0000 0.5000
vt 0.7500 0.0000 0.5000
vt 0.8000 1.0000 0.5000
vt 0.8000 0.0000 0.5000
vt 0.8500 1.0000 0.5000
vt 0.8500 0.0000 0.5000
vt 0.9000 1.0000 0.5000
vt 0.9000 0.0000 0.5000
vt 0.9500 1.0000 0.5000
vt 0.9500 0.0000 0.5000
vt 1.0000 1.0000 0.5000
vt 1.0000 0.0000 0.5000
# 42 texture coords

o Cylinder001
g Cylinder001
s 8
f 1/1/1 2/2/1 3/3/2 4/4/2 
f 4/4/2 3/3/2 5/5/3 6/6/3 
f 6/6/3 5/5/3 7/7/4 8/8/4 
f 8/8/4 7/7/4 9/9/5 10/10/5 
f 10/10/5 9/9/5 11/11/6 12/12/6 
f 12/12/6 11/11/6 13/13/7 14/14/7 
f 14/14/7 13/13/7 15/15/8 16/16/8 
f 16/16/8 15/15/8 17/17/9 18/18/9 
f 18/18/9 17/17/9 19/19/10 20/20/10 
f 20/20/10 19/19/10 21/21/11 22/22/11 
f 22/22/11 21/21/11 23/23/12 24/24/12 
f 24/24/12 23/23/12 25/25/13 26/26/13 
f 26/26/13 25/25/13 27/27/14 28/28/14 
f 28/28/14 27/27/14 29/29/15 30/30/15 
f 30/30/15 29/29/15 31/31/16 32/32/16 
f 32/32/16 31/31/16 33/33/17 34/34/17 
f 34/34/17 33/33/17 35/35/18 36/36/18 
f 36/36/18 35/35/18 37/37/19 38/38/19 
f 38/38/19 37/37/19 39/39/20 40/40/20 
f 40/40/20 39/39/20 2/41/1 1/42/1 
# 20 polygons

